<?xml version="1.0" encoding="UTF-8"?>
<svg version="1.1" xmlns="http://www.w3.org/2000/svg" width="370" height="358">
<path d="M0 0 C0.79341797 0.00215515 1.58683594 0.0043103 2.40429688 0.00653076 C49.4455569 0.2114597 91.49771215 19.95776344 125.3125 52.3125 C127.79060158 54.87158529 130.0652034 57.54943041 132.3125 60.3125 C132.72113281 60.80878906 133.12976563 61.30507813 133.55078125 61.81640625 C140.19823045 69.91978093 146.1079763 78.18852018 151.3125 87.3125 C151.6434668 87.88548828 151.97443359 88.45847656 152.31542969 89.04882812 C174.81165094 128.2719048 180.26416688 175.50440296 169 219.1875 C160.98812497 248.43417455 146.17128046 274.30072162 125.3125 296.3125 C124.47074219 297.20710938 123.62898438 298.10171875 122.76171875 299.0234375 C92.06402319 330.74290874 47.5216388 348.76627467 3.66699219 349.66870117 C-35.82779413 349.89423503 -74.33236426 338.80261379 -105.6875 314.3125 C-106.53828125 313.65378906 -107.3890625 312.99507813 -108.265625 312.31640625 C-116.81737221 305.5878076 -124.70042649 298.66469501 -131.6875 290.3125 C-132.42484375 289.48621094 -133.1621875 288.65992188 -133.921875 287.80859375 C-161.2784424 256.48793776 -174.90453728 216.14704904 -174.9375 174.9375 C-174.93817474 174.17927948 -174.93884949 173.42105896 -174.93954468 172.63986206 C-174.92301198 160.93424502 -174.32842568 149.75474714 -171.6875 138.3125 C-171.5318457 137.57708984 -171.37619141 136.84167969 -171.21582031 136.08398438 C-161.50806593 90.70362355 -132.7426276 52.13898861 -94.3515625 26.87573242 C-65.95033286 8.61102994 -33.67786548 -0.16486285 0 0 Z M-84.6875 59.3125 C-85.60273437 60.00730469 -86.51796875 60.70210937 -87.4609375 61.41796875 C-117.7174818 85.21573784 -137.38531876 119.74567443 -142.18359375 158.0078125 C-146.06819471 194.68885929 -136.59762303 232.3964105 -113.6875 261.625 C-87.29977844 293.20632878 -53.43548974 314.09623404 -11.890625 317.99609375 C23.44158742 320.84311087 59.62784069 310.19883079 86.9765625 287.34765625 C117.78959535 260.50218783 137.86683579 226.76962922 141.16748047 185.43164062 C143.70156166 148.40163259 132.04354625 110.1257086 107.55053711 81.96801758 C106.15206376 80.40249692 104.73693593 78.85441518 103.3125 77.3125 C102.84618164 76.80235352 102.37986328 76.29220703 101.89941406 75.76660156 C90.55765698 63.49072585 77.19339834 53.90868376 62.3125 46.3125 C61.22074463 45.75151611 61.22074463 45.75151611 60.10693359 45.17919922 C14.11345052 21.97657388 -43.8875042 27.67283384 -84.6875 59.3125 Z " fill="#000000" transform="translate(184.6875,2.6875)"/>
<path d="M0 0 C2.87375878 0.31441562 3.82195313 0.78270846 5.68359375 3.0546875 C6.26238281 3.98539063 6.84117187 4.91609375 7.4375 5.875 C8.13101563 6.96039063 8.82453125 8.04578125 9.5390625 9.1640625 C10.11962402 10.07720215 10.11962402 10.07720215 10.71191406 11.00878906 C13.16910197 14.80727742 15.7488434 18.52292446 18.3125 22.25 C21.63141319 27.07966775 24.94637395 31.91070721 28.2109375 36.77734375 C28.96443481 37.89351074 28.96443481 37.89351074 29.7331543 39.03222656 C30.68533242 40.44331074 31.63232518 41.85791118 32.57348633 43.27636719 C33.66477517 44.88659494 34.82571455 46.44925874 36 48 C36.66 48 37.32 48 38 48 C39.52757994 45.92707711 40.92858666 43.85448853 42.3125 41.6875 C43.21365722 40.30651667 44.11606203 38.92634688 45.01953125 37.546875 C45.74197021 36.43989258 45.74197021 36.43989258 46.47900391 35.31054688 C49.10545711 31.32069886 51.8010397 27.3785231 54.5 23.4375 C55.31791016 22.24229736 55.31791016 22.24229736 56.15234375 21.02294922 C61.00858969 13.94815044 65.97388753 6.95486895 71 0 C73.39785819 0.37731986 74.67883123 0.65146187 76.34936523 2.46435547 C76.94793335 3.40625732 76.94793335 3.40625732 77.55859375 4.3671875 C78.02056152 5.07875 78.4825293 5.7903125 78.95849609 6.5234375 C79.44656738 7.29945313 79.93463867 8.07546875 80.4375 8.875 C81.49989316 10.51914043 82.56374575 12.16233855 83.62890625 13.8046875 C84.45479248 15.08617676 84.45479248 15.08617676 85.29736328 16.39355469 C88.07781328 20.64994761 90.98139429 24.82011537 93.875 29 C97.79441534 34.68778464 101.6039567 40.38881618 105.046875 46.3828125 C105.89845139 47.98183306 105.89845139 47.98183306 107 49 C107.44988281 48.319375 107.89976562 47.63875 108.36328125 46.9375 C132.55378486 10.48207171 132.55378486 10.48207171 140 8 C144.9388636 7.48146182 148.85354834 7.44800475 153.375 9.625 C157.8017924 13.63019313 160.23314578 16.92903133 160.875 22.9375 C160.57551359 30.57956714 155.83056495 36.11008441 151.45410156 42.01757812 C149.07160427 45.26571076 146.82823297 48.60745433 144.5625 51.9375 C143.63263464 53.28853487 142.70164124 54.63879403 141.76953125 55.98828125 C134.50317884 66.5129281 127.26901325 77.05928234 120.0625 87.625 C119.42344727 88.56166504 118.78439453 89.49833008 118.12597656 90.46337891 C115.06071241 94.96045478 112.00671785 99.4635485 109 104 C106.8125 103.9375 106.8125 103.9375 104 103 C101.04517603 99.45421124 98.86646195 95.80184897 96.6875 91.75 C94.29116076 87.34073579 91.46054135 83.41124216 88.4609375 79.39453125 C86.45349045 76.66989517 84.55304167 73.88217512 82.6640625 71.07421875 C82.08076172 70.20845215 81.49746094 69.34268555 80.89648438 68.45068359 C79.72315137 66.70329709 78.555101 64.95235086 77.39257812 63.19775391 C76.85310547 62.39644043 76.31363281 61.59512695 75.7578125 60.76953125 C75.2745752 60.04354736 74.79133789 59.31756348 74.29345703 58.56958008 C73.86661621 58.05161865 73.43977539 57.53365723 73 57 C72.34 57 71.68 57 71 57 C69.50043029 58.7884619 69.50043029 58.7884619 67.98046875 61.14453125 C67.37630127 62.04042969 66.77213379 62.93632812 66.1496582 63.859375 C65.502146 64.83390625 64.85463379 65.8084375 64.1875 66.8125 C62.83098684 68.82960039 61.474211 70.84652415 60.1171875 72.86328125 C59.43108398 73.88760254 58.74498047 74.91192383 58.03808594 75.96728516 C54.99279049 80.49874898 51.90326816 84.99948643 48.8125 89.5 C45.51116783 94.31362358 42.22533273 99.13505898 39 104 C34.46791147 103.47302407 34.46791147 103.47302407 32.41357422 101.39624023 C31.9651416 100.70731689 31.51670898 100.01839355 31.0546875 99.30859375 C30.54059326 98.53652588 30.02649902 97.76445801 29.49682617 96.96899414 C28.96162354 96.13360107 28.4264209 95.29820801 27.875 94.4375 C26.72305075 92.69505163 25.57070047 90.95286832 24.41796875 89.2109375 C23.84481934 88.33405273 23.27166992 87.45716797 22.68115234 86.55371094 C20.24214202 82.84879546 17.71632879 79.20639585 15.1875 75.5625 C10.72300246 69.08667645 6.33720832 62.56173637 2 56 C-0.88247367 58.73882226 -3.17925555 61.51567804 -5.390625 64.81640625 C-6.01412842 65.74090576 -6.63763184 66.66540527 -7.2800293 67.61791992 C-7.93011963 68.58963135 -8.58020996 69.56134277 -9.25 70.5625 C-10.59397398 72.55020854 -11.93901502 74.53719605 -13.28515625 76.5234375 C-13.92727051 77.47186523 -14.56938477 78.42029297 -15.23095703 79.39746094 C-17.35208086 82.51796604 -19.49711676 85.6151666 -21.6875 88.6875 C-22.24824219 89.47511719 -22.80898437 90.26273437 -23.38671875 91.07421875 C-26.35793948 94.6209786 -29.34869507 96.73739456 -34.05078125 97.203125 C-39.14368344 97.30867738 -42.64562746 96.93666985 -47 94 C-51.05156633 89.61992829 -52.38997043 86.18602174 -52.26953125 80.1640625 C-51.40757163 73.2434012 -46.42088109 67.70396072 -42.390625 62.29296875 C-39.54713379 58.42827447 -36.90121615 54.43548778 -34.25 50.4375 C-33.73945068 49.66801025 -33.22890137 48.89852051 -32.70288086 48.10571289 C-31.6545948 46.52372422 -30.60699258 44.94128221 -29.56005859 43.35839844 C-22.75309559 33.06806 -15.89965498 22.81111575 -8.9375 12.625 C-8.38908447 11.82199463 -7.84066895 11.01898926 -7.27563477 10.19165039 C-6.50304321 9.06424438 -6.50304321 9.06424438 -5.71484375 7.9140625 C-5.26230225 7.2535791 -4.80976074 6.5930957 -4.34350586 5.91259766 C-2.93633598 3.90936871 -1.47855825 1.95096969 0 0 Z " fill="#000000" transform="translate(130,125)"/>
</svg>
