<?xml version="1.0" encoding="UTF-8"?>
<svg version="1.1" xmlns="http://www.w3.org/2000/svg" width="2000" height="359" viewBox="0 0 2000 359">
<path d="M0 0 C1.14275391 0.26490234 1.14275391 0.26490234 2.30859375 0.53515625 C29.35915317 7.04464916 54.37165133 21.0804329 74.7109375 39.90234375 C76.71647742 41.74018494 78.77359293 43.46227074 80.875 45.1875 C108.38786863 69.38556518 124.31856143 105.70847583 131 141 C131.13277344 141.69625488 131.26554687 142.39250977 131.40234375 143.10986328 C138.98835907 185.12061947 128.28034648 231.8403123 104.56103516 267.14160156 C98.08248247 276.41134317 90.84266597 284.86556818 83 293 C81.8553125 294.23943359 81.8553125 294.23943359 80.6875 295.50390625 C51.51568034 326.20330431 7.43816021 344.07535212 -34.63671875 345.203125 C-80.38417089 345.80288134 -124.7960752 332.02304369 -158.5390625 300.30859375 C-160.72516981 298.25781689 -162.9610155 296.30879725 -165.25 294.375 C-178.68073881 282.59602544 -188.91057754 266.78479342 -197 251 C-197.35046387 250.32356445 -197.70092773 249.64712891 -198.06201172 248.95019531 C-216.71961526 212.52958978 -221.52573985 168.77143388 -212 129 C-211.79632813 128.14486816 -211.59265625 127.28973633 -211.3828125 126.40869141 C-203.65352641 95.31859234 -186.84904247 68.97212409 -165 46 C-164.41992188 45.36707031 -163.83984375 44.73414063 -163.2421875 44.08203125 C-141.47484558 21.05677761 -109.40224902 6.19122564 -79 -1 C-78.31647461 -1.16661133 -77.63294922 -1.33322266 -76.92871094 -1.50488281 C-52.59710248 -7.15768074 -24.13922979 -5.72217221 0 0 Z M-149.41992188 75.22900391 C-175.41764528 104.36798499 -186.85866345 142.45521733 -185 181 C-182.78699887 219.0820611 -163.5742614 253.59026323 -135.71435547 278.9609375 C-130.1851139 283.85425564 -124.25338771 288.07903205 -118 292 C-117.39704102 292.37898438 -116.79408203 292.75796875 -116.17285156 293.1484375 C-84.09390958 312.97119481 -44.93624691 318.91155505 -8.27929688 310.36572266 C2.28632468 307.63543311 12.29483973 304.02251485 22 299 C23.08667969 298.45472656 24.17335938 297.90945313 25.29296875 297.34765625 C59.34399105 279.74331764 84.19432886 248.87540238 95.84692383 212.54711914 C99.26038026 201.29724052 101.47049905 189.76133927 102 178 C102.05285156 176.85917969 102.10570312 175.71835938 102.16015625 174.54296875 C102.98179152 139.28409864 91.13968382 104.6926274 68 78 C67.30390625 77.18273437 66.6078125 76.36546875 65.890625 75.5234375 C42.2677467 48.46602724 8.29509957 30.18776737 -27.73242188 27.14501953 C-74.75077931 24.13803156 -117.19778383 40.67066391 -149.41992188 75.22900391 Z " fill="currentColor" transform="translate(235,7)"/>
<path d="M0 0 C0.67598236 0.00215515 1.35196472 0.0043103 2.0484314 0.00653076 C32.95836066 0.16409276 60.70564725 9.23414015 83.34375 30.78125 C103.4312633 51.96944896 108.53396894 78.06606985 107.88623047 106.20849609 C107.08646637 124.43107806 99.73803132 142.38121838 88.265625 156.4375 C86.59512876 158.44549754 86.59512876 158.44549754 84.75 161.3125 C85.33104492 161.57135986 85.91208984 161.83021973 86.51074219 162.09692383 C88.92471152 163.40734176 90.59997121 164.86096882 92.578125 166.76171875 C93.29613281 167.44556641 94.01414062 168.12941406 94.75390625 168.83398438 C95.86572266 169.90616211 95.86572266 169.90616211 97 171 C98.46218715 172.40115447 99.92572284 173.80090306 101.390625 175.19921875 C102.11185547 175.88806152 102.83308594 176.5769043 103.57617188 177.28662109 C106.28272982 179.80897261 109.08054029 182.21050977 111.91699219 184.58520508 C114.11191706 186.65354465 115.91087386 188.92676445 117.75 191.3125 C110.75779391 191.49042768 103.76617425 191.61275694 96.7722168 191.69702148 C94.39471624 191.73215856 92.01736623 191.77987953 89.64038086 191.84057617 C86.216907 191.92578709 82.79543693 191.96525737 79.37109375 191.99609375 C77.7847538 192.05028725 77.7847538 192.05028725 76.16636658 192.10557556 C68.85907487 192.10943709 68.85907487 192.10943709 65.61428833 189.77786255 C63.77368164 187.89477539 63.77368164 187.89477539 62.26332092 186.01502991 C60.54188701 184.07836685 59.18685485 183.18048611 56.75 182.3125 C54.32389493 183.06594878 52.22705641 183.88391975 49.9375 184.9375 C19.86317412 197.79762713 -16.72087858 198.24247886 -47.25 186.3125 C-70.9648198 176.7628719 -88.98112286 160.85299234 -100.0625 137.75 C-110.31491523 113.56844133 -111.49693388 86.15049569 -102.53515625 61.34375 C-98.15835692 51.02035706 -92.80734105 41.65501934 -85.25 33.3125 C-84.52425781 32.49394531 -83.79851562 31.67539063 -83.05078125 30.83203125 C-61.70442152 8.07434195 -30.34963676 -0.13262217 0 0 Z M-54.25 55.3125 C-65.21322539 68.14800297 -70.42576992 84.54114032 -69.25 101.3125 C-67.41055191 117.31063566 -62.00663012 129.87476582 -50.25 141.3125 C-49.73308594 141.86164063 -49.21617187 142.41078125 -48.68359375 142.9765625 C-35.02118704 156.31792049 -14.22222213 159.74892419 4.00390625 159.54296875 C11.74663443 159.29513831 19.4044625 157.7610125 26.75 155.3125 C25.34321194 152.08701847 23.68721445 150.05633125 21.1171875 147.66796875 C20.03050781 146.65186523 20.03050781 146.65186523 18.921875 145.61523438 C18.16390625 144.91720703 17.4059375 144.21917969 16.625 143.5 C15.89023437 142.81357422 15.15546875 142.12714844 14.3984375 141.41992188 C10.20723984 137.52018954 5.94612235 133.71358438 1.62548828 129.95825195 C-1.21709214 127.46387098 -3.98385217 124.89096021 -6.75 122.3125 C-10.99376129 118.37309424 -15.26901295 114.48614173 -19.6640625 110.71484375 C-21.25868824 109.30481754 -22.75140651 107.82336848 -24.25 106.3125 C-17.40021749 106.13454689 -10.55103392 106.01223296 -3.69946289 105.92797852 C-1.37046026 105.89284514 0.95838874 105.84512686 3.28686523 105.78442383 C6.64084814 105.69919556 9.99278552 105.65973924 13.34765625 105.62890625 C14.90118553 105.57471275 14.90118553 105.57471275 16.48609924 105.51942444 C23.60956403 105.51558319 23.60956403 105.51558319 26.88327026 107.80319214 C28.63995971 109.55988158 30.17969491 111.3901981 31.75 113.3125 C32.95842855 114.41891866 34.18583424 115.50524193 35.4375 116.5625 C37.91931532 118.69531004 40.35661285 120.86272831 42.75 123.09375 C43.27634033 123.58327148 43.80268066 124.07279297 44.3449707 124.57714844 C45.3832958 125.54559392 46.41845567 126.51744757 47.44995117 127.49316406 C50.36530833 130.20634195 53.25757968 132.3970958 56.75 134.3125 C68.03049029 119.659492 70.60437088 101.90929099 68.32421875 83.9609375 C64.95798698 68.63735486 56.44321982 55.19358388 43.375 46.4375 C37.72373776 43.11976459 31.93391231 40.47409803 25.75 38.3125 C24.83605469 37.99152344 23.92210937 37.67054687 22.98046875 37.33984375 C-3.30500941 29.77441162 -34.67357009 35.92705965 -54.25 55.3125 Z " fill="currentColor" transform="translate(544.25,81.6875)"/>
<path d="M0 0 C25.3996875 -0.061875 25.3996875 -0.061875 51.3125 -0.125 C56.62126221 -0.14320801 61.93002441 -0.16141602 67.3996582 -0.18017578 C73.97888184 -0.18920898 73.97888184 -0.18920898 77.07756042 -0.19088745 C79.20090071 -0.19392012 81.32423797 -0.20087217 83.44755554 -0.21115112 C110.75527774 -0.33651715 138.47403753 0.54921105 161 18 C162.23943359 18.91652344 162.23943359 18.91652344 163.50390625 19.8515625 C173.87151864 28.77517254 179.36135172 42.67989867 181 56 C182.26241056 76.61272816 179.92810837 95.19462079 166.375 111.75 C159.93058562 118.57201678 151.53790306 124.19740452 143 128 C142.01 128 141.02 128 140 128 C145.06326535 136.26930837 150.16093587 144.40279781 155.953125 152.1875 C159.66856476 157.2926844 163.1010943 162.58851092 166.57910156 167.85693359 C168.14538228 170.21927244 169.72401159 172.57305166 171.3046875 174.92578125 C171.85672852 175.74876709 172.40876953 176.57175293 172.97753906 177.41967773 C174.06387766 179.03872149 175.15173474 180.65674755 176.24121094 182.27368164 C176.97645996 183.37184204 176.97645996 183.37184204 177.7265625 184.4921875 C178.16564941 185.14558105 178.60473633 185.79897461 179.05712891 186.47216797 C180 188 180 188 180 189 C146.53334116 194.95140668 146.53334116 194.95140668 132 189 C119.56736739 180.25724852 112.17604688 164.25038614 105.58154297 150.96899414 C105.1522348 150.14412003 104.72292664 149.31924591 104.28060913 148.46937561 C103.41478803 146.79982831 102.59143819 145.10767392 101.8085022 143.39768982 C100.41744011 140.76588795 99.24911472 138.95819893 97 137 C92.57330796 135.71530298 88.30938909 135.81134052 83.7265625 135.90234375 C81.80824112 135.88815147 81.80824112 135.88815147 79.85116577 135.87367249 C76.46615675 135.85659633 73.08591123 135.87805589 69.70141602 135.91845703 C66.24227278 135.9501811 62.78342052 135.93138599 59.32421875 135.91601562 C52.54737979 135.88959124 45.77854392 135.94694314 39 136 C39 153.49 39 170.98 39 189 C26.13 189 13.26 189 0 189 C0 126.63 0 64.26 0 0 Z M39 34 C39 56.44 39 78.88 39 102 C54.46875 102.061875 54.46875 102.061875 70.25 102.125 C73.48200195 102.14320801 76.71400391 102.16141602 80.04394531 102.18017578 C82.63867019 102.18602332 85.23339692 102.19111825 87.828125 102.1953125 C88.81362335 102.20315262 88.81362335 102.20315262 89.81903076 102.21115112 C104.90889393 102.32498589 119.4004761 101.18688493 131.3359375 91.0078125 C138.49961862 83.23960132 140.39206828 74.56266836 140.27734375 64.19921875 C139.56390857 55.96959319 136.34903195 48.40162629 130 43 C116.67024665 33.63591224 101.23928008 33.83881231 85.58203125 33.90234375 C83.79992249 33.90385437 83.79992249 33.90385437 81.98181152 33.90539551 C77.59203104 33.91058255 73.20226443 33.9245434 68.8125 33.9375 C54.0553125 33.9684375 54.0553125 33.9684375 39 34 Z " fill="currentColor" transform="translate(1186,84)"/>
<path d="M0 0 C13.86 0 27.72 0 42 0 C48.97527354 13.88148496 55.94036589 27.7509815 62.60498047 41.78393555 C66.83015715 50.67323866 71.13111074 59.52485587 75.4375 68.375 C80.3166642 78.40481472 85.18456536 88.43937605 90 98.5 C94.39364087 107.6777598 98.82617162 116.83611781 103.2749939 125.98721313 C104.36962742 128.23894823 105.46381603 130.49089897 106.55786133 132.74291992 C110.79099486 141.45706395 110.79099486 141.45706395 115.02978516 150.16845703 C116.62245604 153.43878652 118.21199992 156.71061861 119.79937744 159.98352051 C120.65029361 161.735878 121.50451519 163.48662928 122.35888672 165.23730469 C126.15971818 173.08169803 129.55697113 180.96626597 133 189 C119.14 189 105.28 189 91 189 C84.5625 175.125 84.5625 175.125 82.53344727 170.75048828 C82.00807373 169.61853027 81.4827002 168.48657227 80.94140625 167.3203125 C80.13231812 165.57645264 80.13231812 165.57645264 79.30688477 163.79736328 C78.55583388 162.1897524 77.79353515 160.58707031 77 159 C40.7 158.67 4.4 158.34 -33 158 C-33.33 159.65 -33.66 161.3 -34 163 C-34.85575141 165.0806606 -35.76906428 167.13810577 -36.72265625 169.17578125 C-37.20742432 170.21903564 -37.69219238 171.26229004 -38.19165039 172.3371582 C-39.11772095 174.30495239 -39.11772095 174.30495239 -40.0625 176.3125 C-42.021875 180.499375 -43.98125 184.68625 -46 189 C-59.86 189 -73.72 189 -88 189 C-82.26039984 175.22495962 -82.26039984 175.22495962 -79.13671875 168.7109375 C-78.78783096 167.97706818 -78.43894318 167.24319885 -78.07948303 166.48709106 C-77.3360117 164.92398857 -76.59127516 163.36148729 -75.84533691 161.79956055 C-74.24855591 158.4558321 -72.65832783 155.10899975 -71.06759644 151.76239014 C-70.24770674 150.03766878 -69.42749485 148.31310055 -68.60696411 146.58868408 C-64.63301306 138.23594977 -60.68668952 129.87034878 -56.75 121.5 C-56.25648041 120.45108582 -56.25648041 120.45108582 -55.75299072 119.38098145 C-50.88370599 109.0305021 -46.04146889 98.66759327 -41.21179199 88.29858398 C-36.34345446 77.84882386 -31.42844925 67.42152742 -26.5 57 C-21.03801261 45.44888299 -15.59350939 33.88993274 -10.1875 22.3125 C-9.89858887 21.6944751 -9.60967773 21.0764502 -9.31201172 20.43969727 C-8.49220753 18.6855053 -7.67381369 16.93065444 -6.85546875 15.17578125 C-6.39809326 14.19520752 -5.94071777 13.21463379 -5.46948242 12.2043457 C-3.61118808 8.15215876 -1.8105522 4.07374246 0 0 Z M21 42 C12.8699347 59.15845362 4.79042035 76.33762085 -3.0625 93.625 C-3.51328415 94.61607254 -3.51328415 94.61607254 -3.97317505 95.62716675 C-4.26634613 96.27219147 -4.55951721 96.91721619 -4.86157227 97.58178711 C-5.11495865 98.13926132 -5.36834503 98.69673553 -5.62940979 99.27110291 C-9.4917282 107.81933174 -13.23910399 116.40366626 -17 125 C8.74 125 34.48 125 61 125 C58.62663398 119.06658494 56.36189243 113.47225053 53.56640625 107.7890625 C53.09482841 106.82499229 53.09482841 106.82499229 52.61372375 105.84144592 C51.9446297 104.47371889 51.27410864 103.10668913 50.60223389 101.74032593 C48.81326978 98.10070024 47.03650104 94.45515202 45.26171875 90.80859375 C44.90277527 90.0710939 44.54383179 89.33359406 44.17401123 88.57374573 C40.11616667 80.21326584 36.21210082 71.78345646 32.33813477 63.33642578 C29.03420332 56.14948379 25.58009433 49.05349711 22 42 C21.67 42 21.34 42 21 42 Z " fill="currentColor" transform="translate(1845,84)"/>
<path d="M0 0 C61.05 0 122.1 0 185 0 C183.15192111 3.69615779 181.20885812 6.49823208 178.6875 9.75 C178.25236084 10.31146729 177.81722168 10.87293457 177.36889648 11.45141602 C173.2863689 16.69076712 169.09321201 21.83918966 164.89160156 26.9831543 C160.90175495 31.87217895 156.98053334 36.80965398 153.09399414 41.78100586 C149.25899454 46.68294249 145.37284837 51.54250371 141.47802734 56.39697266 C138.14512078 60.55584639 134.84508715 64.73884201 131.5625 68.9375 C127.59800899 74.00515372 123.56734931 79.01458331 119.5 84 C113.57543572 91.26340947 107.76730373 98.61143372 102 106 C95.69897711 114.07232069 89.33063758 122.08026279 82.85620117 130.0144043 C78.28302039 135.62784531 73.79690187 141.30585643 69.33984375 147.01171875 C67.24407519 149.68828461 65.1236187 152.34547663 63 155 C101.28 155.33 139.56 155.66 179 156 C179 166.89 179 177.78 179 189 C116.96 189 54.92 189 -9 189 C-6.17773169 184.06103045 -3.97353112 180.5361679 -0.375 176.375 C4.47561958 170.68367807 9.04437398 164.80150478 13.578125 158.85595703 C16.28234156 155.32617436 19.01780626 151.82064128 21.75 148.3125 C22.34047119 147.55404785 22.93094238 146.7955957 23.53930664 146.01416016 C24.75024431 144.45875838 25.96126391 142.90342039 27.17236328 141.34814453 C28.98986598 139.01302017 30.80575788 136.6766529 32.62109375 134.33984375 C38.33384553 126.98697434 44.05696853 119.64293821 49.81713867 112.32714844 C53.56310013 107.56564556 57.28329181 102.78435871 61 98 C65.58571342 92.09700821 70.18607379 86.20623198 74.81201172 80.3347168 C77.9912143 76.29537556 81.14544948 72.23719448 84.29418945 68.17407227 C90.09484713 60.69177307 95.96524612 53.29574723 102 46 C104.97 42.37 107.94 38.74 111 35 C74.37 34.67 37.74 34.34 0 34 C0 22.78 0 11.56 0 0 Z " fill="currentColor" transform="translate(685,84)"/>
<path d="M0 0 C14.52 0 29.04 0 44 0 C46.248125 5.48625 48.49625 10.9725 50.8125 16.625 C57.01821668 31.75972627 63.25037523 46.88335624 69.5 62 C77.15148031 80.50778236 84.76691703 99.03007778 92.35961914 117.56204224 C95.56322051 125.37875306 98.78102365 133.18961075 102 141 C110.69903103 120.45343416 119.31835573 99.87735468 127.76538086 79.22583008 C128.4321043 77.59585582 129.09885265 75.96589175 129.765625 74.3359375 C130.10058487 73.51705551 130.43554474 72.69817352 130.78065491 71.85447693 C135.18243307 61.10080997 139.62353017 50.36335435 144.0625 39.625 C144.46014557 38.66303711 144.85779114 37.70107422 145.26748657 36.70996094 C145.6552829 35.7718457 146.04307922 34.83373047 146.44262695 33.8671875 C147.01312019 32.4869339 147.01312019 32.4869339 147.59513855 31.07879639 C148.33779379 29.2824658 149.08079653 27.48627883 149.82417297 25.69024658 C151.58512476 21.4338305 153.33907115 17.17479373 155.07763672 12.90917969 C155.56447182 11.71740616 155.56447182 11.71740616 156.06114197 10.5015564 C156.66904102 9.01221214 157.27491713 7.52204002 157.87843323 6.03091431 C159.8884332 1.1115668 159.8884332 1.1115668 161 0 C162.35094982 -0.09268999 163.70667091 -0.11747326 165.06079102 -0.11352539 C165.92160782 -0.11344986 166.78242462 -0.11337433 167.66932678 -0.11329651 C168.60473801 -0.10813522 169.54014923 -0.10297394 170.50390625 -0.09765625 C171.45692123 -0.0962413 172.40993622 -0.09482635 173.39183044 -0.09336853 C176.44875165 -0.08775152 179.50560077 -0.07519616 182.5625 -0.0625 C184.62955624 -0.05748719 186.69661362 -0.05292391 188.76367188 -0.04882812 C193.84247588 -0.03777656 198.9212257 -0.02050055 204 0 C202.06464613 6.15101657 199.79043285 12.03467632 197.1484375 17.9140625 C196.77739395 18.74921387 196.4063504 19.58436523 196.02406311 20.44482422 C195.22678894 22.23835822 194.42769078 24.03108234 193.62692261 25.82305908 C191.47062754 30.64908533 189.32822256 35.48128111 187.18359375 40.3125 C186.74618362 41.29683014 186.3087735 42.28116028 185.85810852 43.2953186 C181.67304856 52.71911781 177.54824433 62.16860087 173.4375 71.625 C172.03949274 74.83872899 170.64098898 78.05224163 169.2421875 81.265625 C168.8953038 82.06252747 168.5484201 82.85942993 168.19102478 83.68048096 C164.16692854 92.92020951 160.11589375 102.14809479 156.0625 111.375 C155.6930426 112.21604279 155.32358521 113.05708557 154.94293213 113.9236145 C153.06709516 118.19352156 151.19086764 122.46325687 149.31445312 126.73291016 C145.70105607 134.9553694 142.09063542 143.17913565 138.48019409 151.40289307 C137.35354593 153.96901145 136.226718 156.53505082 135.09985352 159.10107422 C134.39599085 160.70409926 133.69213318 162.3071265 132.98828125 163.91015625 C132.68786926 164.59413986 132.38745728 165.27812347 132.07794189 165.98283386 C128.71101775 173.65190773 125.3571131 181.32659863 122 189 C108.8 189 95.6 189 82 189 C80.22625 184.895625 78.4525 180.79125 76.625 176.5625 C68.92664172 158.7798998 61.12918002 141.04104731 53.33056641 123.30224609 C49.92382915 115.55261647 46.52161454 107.80100163 43.11914062 100.04949951 C41.9988162 97.4973032 40.87834168 94.94517283 39.7578125 92.39306641 C36.35384746 84.64020221 32.95025708 76.88717435 29.54827881 69.13343811 C28.01526215 65.63950557 26.48195327 62.14570129 24.94866943 58.65188599 C23.82496697 56.09091283 22.70177539 53.52971604 21.57861328 50.96850586 C17.91484791 42.61705018 14.23764956 34.27186466 10.53515625 25.9375 C9.82636364 24.3397856 9.11762226 22.74204848 8.40893555 21.14428711 C7.0824075 18.15369899 5.75116824 15.16527023 4.41723633 12.17797852 C3.82745134 10.84920336 3.23784104 9.52035065 2.6484375 8.19140625 C2.13458496 7.03842041 1.62073242 5.88543457 1.09130859 4.69750977 C0 2 0 2 0 0 Z " fill="currentColor" transform="translate(1468,84)"/>
<path d="M0 0 C58.74 0 117.48 0 178 0 C178 11.55 178 23.1 178 35 C155.23 35 132.46 35 109 35 C109 85.82 109 136.64 109 189 C96.13 189 83.26 189 70 189 C70 138.18 70 87.36 70 35 C46.9 35 23.8 35 0 35 C0 23.45 0 11.9 0 0 Z " fill="currentColor" transform="translate(968,84)"/>
<path d="M0 0 C3.77350577 1.25783526 4.30219271 2.55725936 6.44140625 5.85546875 C7.10277588 6.86399902 7.76414551 7.8725293 8.44555664 8.91162109 C9.4934436 10.53318115 9.4934436 10.53318115 10.5625 12.1875 C12.00867635 14.39306918 13.45658698 16.5975022 14.90625 18.80078125 C15.60878906 19.87021973 16.31132812 20.9396582 17.03515625 22.04150391 C20.19810999 26.80401303 23.52098807 31.43764316 26.875 36.06640625 C29.54038623 39.74601114 32.13397741 43.47324271 34.72265625 47.20703125 C35.87731933 48.93252587 35.87731933 48.93252587 37 50 C37.43119141 49.36312256 37.86238281 48.72624512 38.30664062 48.07006836 C40.36962399 45.02488054 42.43422293 41.98079302 44.5 38.9375 C44.87705078 38.38198456 45.25410156 37.82646912 45.64257812 37.25411987 C52.05259 27.81551973 58.53769964 18.43236057 65.08398438 9.08764648 C65.71626953 8.18344971 66.34855469 7.27925293 67 6.34765625 C67.556875 5.55367432 68.11375 4.75969238 68.6875 3.94165039 C70.03402437 2.04061515 70.03402437 2.04061515 71 0 C75.02832302 1.34277434 76.20126985 3.94561794 78.375 7.375 C79.26698124 8.74690593 80.16027514 10.11795905 81.0546875 11.48828125 C81.5300293 12.21998535 82.00537109 12.95168945 82.49511719 13.70556641 C85.11084341 17.69365774 87.8043625 21.62815478 90.5 25.5625 C91.31911865 26.75891113 91.31911865 26.75891113 92.15478516 27.97949219 C99.45319766 39.49245627 99.45319766 39.49245627 108 50 C108.4626123 49.31599121 108.92522461 48.63198242 109.40185547 47.92724609 C113.50327942 41.86732851 117.615046 35.8147229 121.74354553 29.77322388 C123.88910661 26.6327302 126.0214699 23.48385365 128.14453125 20.328125 C128.99115398 19.09304091 129.83870025 17.85858897 130.6875 16.625 C131.39261719 15.58601562 132.09773437 14.54703125 132.82421875 13.4765625 C135.82285857 10.06338899 138.87605732 8.3929294 143.34375 7.56640625 C148.72403528 7.55665936 151.77979159 8.36865788 156 12 C157.175625 12.99 157.175625 12.99 158.375 14 C161.17055579 19.16102607 161.39780263 23.2979505 160 29 C157.24422179 34.60983082 153.40742384 39.60381898 149.72314453 44.62792969 C147.5186301 47.66265088 145.41792804 50.76114903 143.31787109 53.86865234 C137.18049377 62.94570153 130.89023411 71.91886757 124.6171875 80.90234375 C120.50293887 86.80399589 116.46371164 92.73762695 112.578125 98.79296875 C110.91337728 101.12114316 109.07657231 103.03628488 107 105 C98.92773114 93.53809341 90.93301808 82.0280176 83.06420898 70.42529297 C82.47454346 69.55662598 81.88487793 68.68795898 81.27734375 67.79296875 C80.72159668 66.9736084 80.16584961 66.15424805 79.59326172 65.31005859 C78.12003434 63.17403691 76.60280498 61.07905621 75.06640625 58.98828125 C73 56 73 56 73 54 C72.34 54 71.68 54 71 54 C70.77570313 54.67417969 70.55140625 55.34835938 70.3203125 56.04296875 C68.6222208 59.84609128 66.32444088 62.95907498 63.875 66.3125 C57.84733852 74.68002509 52.14447749 83.24424101 46.52099609 91.88793945 C43.34054518 96.72297169 40.34277711 101.15091046 36 105 C27.84605999 93.3394175 19.72279133 81.65755865 11.69650269 69.90866089 C10.5741467 68.26703517 9.44834544 66.62776667 8.32250977 64.98852539 C7.63987061 63.98684326 6.95723145 62.98516113 6.25390625 61.953125 C5.34620483 60.62522949 5.34620483 60.62522949 4.42016602 59.27050781 C3 57 3 57 2 54 C1.34 54 0.68 54 0 54 C-0.40508789 55.10226929 -0.40508789 55.10226929 -0.81835938 56.22680664 C-1.95752306 58.90031085 -3.22982053 61.00695918 -4.90625 63.37109375 C-5.48052734 64.18642578 -6.05480469 65.00175781 -6.64648438 65.84179688 C-7.25814453 66.69837891 -7.86980469 67.55496094 -8.5 68.4375 C-9.12712891 69.32115234 -9.75425781 70.20480469 -10.40039062 71.11523438 C-11.66891708 72.9020556 -12.93908418 74.68771327 -14.2109375 76.47216797 C-15.80832354 78.7291733 -17.3794783 81.00089189 -18.9375 83.28515625 C-19.37513672 83.91945557 -19.81277344 84.55375488 -20.26367188 85.20727539 C-21.42046803 86.8846755 -22.5698861 88.5671571 -23.71875 90.25 C-26.6894019 93.83105982 -29.70280486 96.51376036 -34.34375 97.49609375 C-39.26425712 97.36238432 -42.80210827 96.83113628 -47 94 C-51.05823182 89.61272235 -52.36883585 86.18779035 -52.28125 80.1628418 C-51.41864034 73.52928367 -46.52781525 67.63636705 -42.6875 62.375 C-41.61812754 60.88530777 -40.55050636 59.39435727 -39.484375 57.90234375 C-38.92041016 57.11327637 -38.35644531 56.32420898 -37.77539062 55.51123047 C-34.60470978 51.0264088 -31.52325526 46.48098424 -28.4375 41.9375 C-27.16150341 40.0598652 -25.88546239 38.18226059 -24.609375 36.3046875 C-23.99771484 35.40459961 -23.38605469 34.50451172 -22.75585938 33.57714844 C-20.24754254 29.89558664 -17.71803248 26.22880841 -15.1875 22.5625 C-10.04003007 15.09799812 -5.00693996 7.55928463 0 0 Z " fill="currentColor" transform="translate(139,125)"/>
<path d="M0 0 C13.2 0 26.4 0 40 0 C40 62.37 40 124.74 40 189 C26.8 189 13.6 189 0 189 C0 126.63 0 64.26 0 0 Z " fill="currentColor" transform="translate(1694,84)"/>
<path d="M0 0 C12.87 0 25.74 0 39 0 C39 62.37 39 124.74 39 189 C26.13 189 13.26 189 0 189 C0 126.63 0 64.26 0 0 Z " fill="currentColor" transform="translate(1407,84)"/>
</svg>
